<svg width="69" height="21" viewBox="0 0 69 21"><path fill="#0052f3" d="M5.615 6.51l-.288 1.647a.448.448 0 00.44.526h3.72a.893.893 0 00.879-.741l.288-1.646a.447.447 0 00-.439-.526H6.494a.892.892 0 00-.879.74"></path><path fill="#5790ff" d="M3.716 15.87l-.29 1.647a.448.448 0 00.44.526h5.46a.892.892 0 00.877-.741l.29-1.646a.447.447 0 00-.44-.526h-5.46a.892.892 0 00-.877.74"></path><path fill="#3076ff" d="M.296 11.19l-.29 1.648a.447.447 0 00.44.525H7.53a.893.893 0 00.878-.74l.288-1.647a.448.448 0 00-.439-.526H1.174a.892.892 0 00-.878.74"></path><path fill="#fff" d="M54.402 19.857a.448.448 0 00.439.526h2.725a.446.446 0 00.44-.37L59.415 12c.17-1.007.552-1.767 1.147-2.28.596-.513 1.234-.77 1.915-.77 1.228 0 1.843.665 1.843 1.995 0 .324-.047.79-.142 1.398l-1.325 7.512a.447.447 0 00.44.527h3.097l1.475-8.325c.151-.836.227-1.5.227-1.995 0-1.33-.364-2.428-1.092-3.293-.728-.865-1.782-1.297-3.162-1.297-1.456 0-2.656.609-3.602 1.825L61.44.527a.447.447 0 00-.572-.507l-2.666.841a.895.895 0 00-.612.7l-3.189 18.295m13.562-2.387h-1.056l-.516 2.913h.845a.892.892 0 00.877-.742l.289-1.646a.448.448 0 00-.439-.525m-53.67-8.79h1.057l.516-2.912h-.845a.893.893 0 00-.878.74l-.288 1.647a.447.447 0 00.439.525m-.888 11.13a.447.447 0 00.439.525h2.35a.892.892 0 00.879-.74l1.344-7.642c.17-1.006.553-1.767 1.149-2.28.595-.513 1.234-.77 1.914-.77 1.228 0 1.844.666 1.844 1.996 0 .323-.048.788-.143 1.397l-1.325 7.513a.447.447 0 00.44.526h2.35a.893.893 0 00.879-.739l1.344-7.585c.15-.836.226-1.501.226-1.996 0-1.33-.364-2.428-1.092-3.293-.728-.864-1.782-1.297-3.162-1.297-1.456 0-2.647.599-3.573 1.796l.163-.927a.447.447 0 00-.439-.526h-3.127l-2.46 14.041m33.883.916c1.87 0 3.35-.428 4.437-1.284 1.088-.855 1.631-2.033 1.631-3.534 0-.76-.218-1.44-.652-2.039a5.24 5.24 0 00-1.56-1.439 17.77 17.77 0 00-1.83-.955 12.513 12.513 0 01-1.573-.827c-.435-.275-.652-.556-.652-.84 0-.38.17-.685.51-.914.341-.227.784-.341 1.334-.341.818 0 1.494.247 2.03.74a.88.88 0 001.12.06l1.72-1.266a.451.451 0 00.074-.66c-.403-.454-.946-.868-1.627-1.24-.87-.475-1.843-.713-2.92-.713-1.702 0-3.092.418-4.17 1.254-1.077.836-1.616 1.958-1.616 3.364 0 .932.322 1.744.964 2.437.643.695 1.351 1.203 2.127 1.526.774.323 1.484.68 2.127 1.069.643.39.964.774.964 1.155 0 .437-.203.765-.61.983-.406.218-.892.328-1.46.328a3.786 3.786 0 01-2.622-1.01c-.328-.297-.81-.34-1.162-.07L42.192 17.8a.456.456 0 00-.095.617c.428.629 1.062 1.151 1.903 1.565 1.002.494 2.099.742 3.29.742m-13.761-3.25c-.567 0-1.021-.123-1.361-.37-.34-.248-.51-.571-.51-.97 0-.646.269-1.126.808-1.44.538-.313 1.195-.47 1.97-.47.874 0 1.659.126 2.352.376a.443.443 0 01.275.5l-.185 1.007a.46.46 0 01-.166.278 5.04 5.04 0 01-3.183 1.088zm5.461 2.908a.894.894 0 00.879-.743l1.374-7.924c.132-.798.198-1.368.198-1.71 0-.874-.175-1.625-.525-2.253-.35-.627-.808-1.097-1.375-1.41a6.801 6.801 0 00-1.66-.67 6.665 6.665 0 00-1.6-.2c-1.81 0-3.532.464-5.17 1.391a.887.887 0 00-.421.93l.316 1.753a.442.442 0 00.647.314c1.366-.759 2.71-1.138 4.03-1.138 1.438 0 2.157.58 2.157 1.739 0 .247-.039.551-.114.912l-.113.57c-.927-.57-1.967-.855-3.12-.855-1.947 0-3.512.485-4.693 1.454-1.182.969-1.772 2.28-1.772 3.934 0 1.293.43 2.324 1.29 3.093.86.77 1.924 1.154 3.19 1.154a5.81 5.81 0 002.212-.427c.7-.285 1.248-.636 1.645-1.055l-.12.605a.447.447 0 00.436.536z"></path></svg>